<?xml version="1.0" encoding="utf-8"?>
<!-- Generator: Adobe Illustrator 15.0.0, SVG Export Plug-In . SVG Version: 6.00 Build 0)  -->
<!DOCTYPE svg PUBLIC "-//W3C//DTD SVG 1.1//EN" "http://www.w3.org/Graphics/SVG/1.1/DTD/svg11.dtd">
<svg version="1.1" id="Layer_1" xmlns="http://www.w3.org/2000/svg" xmlns:xlink="http://www.w3.org/1999/xlink" x="0px" y="0px"
	 width="800px" height="800px" viewBox="0 0 800 800" enable-background="new 0 0 800 800" xml:space="preserve">
<g>
	<g>
		<path fill="#FFFFFF" d="M370.65,15.92C426.96,11.67,484.22,19.77,537,39.9c31.56,12.14,61.71,28.12,89.16,47.9
			c59.05,43.26,105.95,103.22,132.62,171.49c31.7,80.23,35.09,171.18,9.79,253.62c-10.33,33.94-25.58,66.31-44.54,96.26
			c-18.07,28.43-40.51,53.92-65.38,76.57c-48.63,44.19-108.75,75.63-172.86,90.12c-82.43,18.84-171.02,9.83-247.7-25.94
			c-33.51-15.59-65.15-35.48-92.63-60.27c-26.93-24-50.8-51.5-70.23-81.93c-21.1-32.89-37.14-69.04-47.32-106.77
			c-19.23-70.99-17.63-147.48,4.68-217.57c13.04-40.72,32.68-79.39,58.17-113.74c31.11-41.06,70.2-76.17,114.69-102.2
			C255.63,37.97,312.62,20.24,370.65,15.92z M388.16,47.26c-53.28,1.64-106.15,15.63-153.24,40.63
			c-68.22,35.95-124.01,94.89-156.06,165.04c-29.25,63.31-38.72,135.4-27.49,204.18c6.91,42.79,21.87,84.26,43.85,121.62
			c34.11,58.22,85.25,106.3,145.51,136.67c69.75,35.54,151.5,46.41,228.21,31.11c39.57-7.81,77.75-22.54,112.34-43.28
			c58.76-35.12,106.92-87.68,136.71-149.32c35.85-73.53,44.57-159.68,24.78-239c-9.62-38.92-26.02-76.14-48.18-109.54
			c-37.43-56.65-91.51-102.14-153.82-129.15C492.91,55.32,440.35,45.48,388.16,47.26z"/>
	</g>
</g>
<g>
	<g>
		<path d="M322.13,7.94c54.08-10.77,110.38-10.06,164.2,1.9c38.63,8.53,75.99,22.83,110.44,42.26
			C655.4,85.06,705.3,133.24,740.4,190.6c19.33,31.42,34.99,65.24,45,100.81c13.24,46.99,16.99,96.48,12.76,145.05
			c-3.41,37.53-12.13,74.58-25.92,109.66c-21.38,54.56-55.021,104.26-97.63,144.49c-46.43,44.03-103.62,76.66-165.21,94.08
			c-46.14,13.14-94.65,17.65-142.46,13.95c-39.37-2.78-78.21-12.05-114.72-26.99c-36.71-14.79-71.41-34.7-102.3-59.48
			c-55.01-43.81-97.77-102.66-123-168.27C10.59,501.91,1.87,457.16,0,412.18v-22.81c1.36-38.44,7.77-76.73,19.84-113.28
			c14.17-42.68,35-83.24,61.97-119.26c32.41-43.34,74.92-78.51,121.94-105.01C240.56,31.06,280.66,16.13,322.13,7.94z M370.65,15.92
			c-58.03,4.32-115.02,22.05-165.2,51.52c-44.49,26.03-83.58,61.14-114.69,102.2c-25.49,34.35-45.13,73.02-58.17,113.74
			c-22.31,70.09-23.91,146.58-4.68,217.57c10.18,37.73,26.22,73.88,47.32,106.77c19.43,30.43,43.3,57.93,70.23,81.93
			c27.48,24.79,59.12,44.68,92.63,60.27c76.68,35.77,165.27,44.78,247.7,25.94c64.11-14.49,124.23-45.93,172.86-90.12
			c24.87-22.65,47.31-48.14,65.38-76.57c18.96-29.95,34.21-62.32,44.54-96.26c25.3-82.44,21.91-173.39-9.79-253.62
			c-26.67-68.27-73.57-128.23-132.62-171.49c-27.45-19.78-57.6-35.76-89.16-47.9C484.22,19.77,426.96,11.67,370.65,15.92z"/>
	</g>
	<g>
		<path d="M350.66,102.77c15.94-16.25,32.19-32.22,48.25-48.36c16.09,16.24,32.35,32.32,48.47,48.53
			c0,51.33-0.03,102.65,0.02,153.98c-0.19,1.48,1.13,2.33,1.97,3.32c1.71-30.26,8.78-60.41,22.2-87.66
			c9.67-20.26,23.41-38.13,37.28-55.64c6.47,18.18,13.98,36.08,18,55.03c10.12,44.28,7.1,91.51-8.97,134.03
			c-4.84,12.91-10.85,25.38-17.83,37.28c-1.1,1.28-0.13,2.81,0.25,4.16c1.44,3.93,2.74,7.9,3.95,11.91
			c10.96-32.42,25.65-63.71,45.11-91.94c10.99-16.23,23.72-31.17,36.4-46.08c5.18,17.13,11.02,34.21,13.07,52.08
			c5.37,40.03-2.56,81.76-22.63,116.84c-14.52,25.69-35.35,47.63-59.83,64.05c-0.19,4.36-0.63,8.71-0.92,13.08
			c21.89-26.3,46.2-50.56,72.4-72.55c12.55-10.57,25.54-20.58,38.39-30.76c-2.62,20.82-4.09,41.92-9.91,62.19
			c-8.91,33.31-26.98,63.71-50.11,89.1c-11.05,11.89-24.25,21.7-38.63,29.2c-10.95,5.62-23.06,8.76-35.31,9.66
			c-1.43,3.18-2.95,6.32-4.39,9.49c5.89,3.54,11.73,7.17,17.64,10.67c-12.9,8.86-26.04,17.38-39.02,26.12
			c-1.78,1.27-2.93,3.17-4.21,4.9c-4.56,6.37-9.69,12.29-14.67,18.32c-0.56,2.37-0.19,4.86-0.27,7.29
			c-0.01,23.34,0.07,46.68-0.04,70.02c3.61,0.19,7.23,0.18,10.85,0.13c0,13.52,0.09,27.05-0.05,40.57
			c-39.49-0.02-78.98-0.06-118.47,0.01c-0.05-13.53-0.05-27.07,0-40.6c3.59,0.04,7.17,0.05,10.76,0.04c0-2.33,0.01-4.65,0.01-6.96
			c-11.31,5.04-23.12,8.78-34.77,12.93c-0.03-14.06-0.01-28.12-0.01-42.18c11.89-4.66,23.61-9.8,34.76-16.04
			c0.02-11.92,0.08-23.84-0.03-35.76c-19.38-12.89-38.8-25.73-58.07-38.78c19.39-11.73,38.75-23.51,58.11-35.3
			c0.02-27.69,0.02-55.38,0-83.07c-12.28-16.15-22.21-34.05-29.55-52.96c-5.01-12.68-8.51-25.88-12.49-38.91
			c14.08,3.48,28.35,6.4,42.05,11.25c0.01-12.49,0.01-24.98,0-37.47c-11.27-14.28-20.48-30.15-27.49-46.93
			c-5-11.64-8.45-23.84-12.59-35.79c13.43,1.93,26.9,3.95,40.08,7.23c-0.02-6.1,0.05-12.2-0.03-18.29
			c-30.42-21.93-56.13-50.73-73.27-84.16c-9.77-18.92-15.87-39.38-23.23-59.28c12.07,2.44,24.27,4.33,36.19,7.49
			c21.32,5.52,41.84,14.26,60.34,26.24C350.61,123.89,350.07,113.28,350.66,102.77z M361.76,107.78
			c0.07,52.55,0.12,105.11-0.03,157.67c10.59,3.55,21.16,7.25,31.21,12.17c0.36-67.07,0.04-134.14,0.16-201.21
			C382.59,86.81,372.1,97.22,361.76,107.78z M404.76,76.34c0,69.11-0.03,138.23,0.01,207.35c11,6.01,21.33,13.14,31.32,20.69
			c0.05-65.51-0.05-131.03,0.04-196.55C425.79,97.22,415.19,86.87,404.76,76.34z M271.64,115.66c3.62,11.44,7.98,22.66,13.19,33.47
			c15.09,31.63,37.72,59.6,65.63,80.81c0.01-27.22,0.13-54.44-0.06-81.66C326.64,132.32,299.7,121.26,271.64,115.66z M460.82,274.08
			c1.83,3.13,4.33,5.82,6.35,8.83c10.52,14.64,19.34,30.47,26.36,47.06c1.31,0.02,1.52-1.45,2.12-2.32
			c9.33-18.01,16.55-37.15,20.82-57c9.54-43.28,4.94-89.22-11.33-130.32C476.19,178.37,459.25,226.08,460.82,274.08z M510.29,380.31
			c-0.25,1.19,0.07,2.4,0.28,3.58c4,18.41,5.95,37.26,6.05,56.1c28.49-21.09,50.64-50.74,62.23-84.27
			c12.53-35.53,12.93-74.95,2.18-110.97C548.06,284.11,522.99,330.45,510.29,380.31z M326.97,269.26
			c10.56,31.64,28.57,60.93,52.89,83.84c26.1,24.92,59.38,41.92,94.57,49.57c-1.6-19.41-5.59-38.65-12.21-56.98
			c-3.64-5.48-8.61-9.98-13.12-14.75C416.37,297.95,372.64,276.87,326.97,269.26z M446.84,275.25c-0.1,4.25-0.01,8.5-0.07,12.76
			c0.06,2.38-0.45,5.07,1.29,7.02c8.15,11.61,16.02,23.59,21.15,36.89c8.49,21.43,13.8,44.08,16.08,67.02
			c7.72,79.81-21.2,162.58-77.54,219.75c-22.86,23.1-50.26,41.95-80.59,53.79c-0.51,6.19-0.15,12.4-0.24,18.61
			c19.51-6.52,38.12-15.65,55.52-26.6c54.55-34.33,95.42-89.45,112.82-151.48c12.62-44.13,13.37-91.56,2.15-136.07
			C488.06,339.98,471.39,304.56,446.84,275.25z M361.8,351.01c0.04,9.57-0.05,19.15,0.06,28.73c9.78,3.96,19.31,8.6,28.35,14.06
			c0.91,0.42,1.79,1.27,2.89,1.02c-0.02-3.93-0.35-7.84-0.06-11.76c0.01-1.97,0.68-4.51-1.57-5.55
			C380.76,369.64,370.94,360.64,361.8,351.01z M324.97,379.82c9.12,30.11,24.36,58.48,45.08,82.21
			c23.48,26.98,54.02,47.69,87.58,59.96c3.38-9.48,7.1-18.98,8.98-28.87c-10.63-22.23-25.34-42.53-43.08-59.64
			C396.31,407.1,361.65,388.96,324.97,379.82z M404.74,386.69c0.01,5.48,0.02,10.97,0,16.46c11.12,8.03,21.54,17.01,31.22,26.73
			c0.25-8.97,0.18-17.94,0.04-26.91C425.11,398.52,414.66,393.01,404.74,386.69z M517.15,484.11c-2.03,2.85-5.1,5.29-5.58,8.96
			c-3.14,16.86-8.11,33.35-14.34,49.32c14.12-2,27.39-8.05,39-16.2c13.96-9.79,25.87-22.3,36-35.97
			c21.38-29.29,35.63-64.08,39.5-100.22C576.98,417.89,544.84,449.15,517.15,484.11z M447.34,442.49
			c8.85,10.21,16.36,21.47,23.41,32.97c3.59-19.96,5.01-40.31,4.31-60.56c-9.18-2.53-18.72-4.33-27.73-7.68
			C447.28,418.98,447.26,430.73,447.34,442.49z M361.93,469.93c-0.28,21.46-0.04,42.93-0.12,64.39c10.43,0,20.86,0.03,31.28-0.01
			c-0.22-11.69,0.43-23.48-0.32-35.1C381.84,490.18,371.32,480.59,361.93,469.93z M404.77,507.91c-0.05,8.81,0,17.61-0.02,26.42
			c10.45-0.01,20.89,0.02,31.34-0.02c-0.03-2.77,0.2-5.55-0.17-8.29c-0.66-1.07-2.12-1.26-3.12-1.9
			C423.02,519.51,413.69,514,404.77,507.91z M447.51,539.3c0.54,0.23,1.61,0.69,2.15,0.93c1.07-2.48,2.22-4.92,3.41-7.34
			c-1.87-0.85-3.75-1.65-5.62-2.46C447.34,533.38,447.01,536.37,447.51,539.3z M358.56,547.43c-11.92,7.44-24.14,14.43-35.95,22.05
			c36.72,0.1,73.45-0.05,110.17,0.08c4.19-6.06,7.78-12.51,11.5-18.86c-2.99-1.78-5.75-4.51-9.26-5.03
			c-24.03-0.03-48.07-0.01-72.11-0.01C361.25,545.52,359.93,546.7,358.56,547.43z M329.39,585.57c9.61,6.42,19.25,12.81,28.85,19.25
			c1.06,0.86,2.41,1.06,3.75,0.99c14.22-0.07,28.44,0.02,42.65-0.06c7.23-7.97,14.07-16.3,20.43-24.98
			c-34.07-0.01-68.15-0.02-102.23,0C324.67,582.81,327.17,584.02,329.39,585.57z M361.81,617.13c-0.01,8.34,0,16.69,0,25.03
			c11.22-7.34,21.94-15.56,31.47-25.02C382.79,617.11,372.3,617.15,361.81,617.13z M404.75,662.9c0.01,12.86,0,25.72,0,38.59
			c10.45-0.02,20.9,0.03,31.35-0.03c-0.04-21.83,0.08-43.66-0.06-65.49C426.19,645.59,415.81,654.69,404.75,662.9z M361.81,688.93
			c0,4.18,0,8.37,0,12.56c10.42-0.02,20.85,0.04,31.28-0.03c-0.04-10.11,0.08-20.22-0.06-30.32
			C382.96,677.64,372.58,683.67,361.81,688.93z M351.07,712.49c0.04,5.96,0.03,11.92,0.01,17.89c31.91,0.01,63.82,0,95.73,0
			c-0.02-5.95-0.06-11.9,0.02-17.85C414.91,712.43,382.99,712.5,351.07,712.49z"/>
	</g>
</g>
<g>
	<g>
		<path fill="#FE0000" d="M388.16,47.26c52.19-1.78,104.75,8.06,152.61,28.96c62.31,27.01,116.39,72.5,153.82,129.15
			c22.16,33.4,38.56,70.62,48.18,109.54c19.79,79.32,11.07,165.47-24.78,239c-29.79,61.64-77.95,114.2-136.71,149.32
			c-34.59,20.74-72.77,35.47-112.34,43.28c-76.71,15.3-158.46,4.43-228.21-31.11c-60.26-30.37-111.4-78.45-145.51-136.67
			c-21.98-37.36-36.94-78.83-43.85-121.62c-11.23-68.78-1.76-140.87,27.49-204.18c32.05-70.15,87.84-129.09,156.06-165.04
			C282.01,62.89,334.88,48.9,388.16,47.26z M350.66,102.77c-0.59,10.51-0.05,21.12-0.24,31.67c-18.5-11.98-39.02-20.72-60.34-26.24
			c-11.92-3.16-24.12-5.05-36.19-7.49c7.36,19.9,13.46,40.36,23.23,59.28c17.14,33.43,42.85,62.23,73.27,84.16
			c0.08,6.09,0.01,12.19,0.03,18.29c-13.18-3.28-26.65-5.3-40.08-7.23c4.14,11.95,7.59,24.15,12.59,35.79
			c7.01,16.78,16.22,32.65,27.49,46.93c0.01,12.49,0.01,24.98,0,37.47c-13.7-4.85-27.97-7.77-42.05-11.25
			c3.98,13.03,7.48,26.23,12.49,38.91c7.34,18.91,17.27,36.81,29.55,52.96c0.02,27.69,0.02,55.38,0,83.07
			c-19.36,11.79-38.72,23.57-58.11,35.3c19.27,13.05,38.69,25.89,58.07,38.78c0.11,11.92,0.05,23.84,0.03,35.76
			c-11.15,6.24-22.87,11.38-34.76,16.04c0,14.06-0.02,28.12,0.01,42.18c11.65-4.15,23.46-7.89,34.77-12.93
			c0,2.31-0.01,4.63-0.01,6.96c-3.59,0.01-7.17,0-10.76-0.04c-0.05,13.53-0.05,27.07,0,40.6c39.49-0.07,78.98-0.03,118.47-0.01
			c0.14-13.52,0.05-27.05,0.05-40.57c-3.62,0.05-7.24,0.06-10.85-0.13c0.11-23.34,0.03-46.68,0.04-70.02
			c0.08-2.43-0.29-4.92,0.27-7.29c4.98-6.03,10.11-11.95,14.67-18.32c1.28-1.73,2.43-3.63,4.21-4.9
			c12.98-8.74,26.12-17.26,39.02-26.12c-5.91-3.5-11.75-7.13-17.64-10.67c1.44-3.17,2.96-6.31,4.39-9.49
			c12.25-0.9,24.36-4.04,35.31-9.66c14.38-7.5,27.58-17.31,38.63-29.2c23.13-25.39,41.2-55.79,50.11-89.1
			c5.82-20.27,7.29-41.37,9.91-62.19c-12.85,10.18-25.84,20.19-38.39,30.76c-26.2,21.99-50.51,46.25-72.4,72.55
			c0.29-4.37,0.73-8.72,0.92-13.08c24.48-16.42,45.31-38.36,59.83-64.05c20.07-35.08,28-76.81,22.63-116.84
			c-2.05-17.87-7.89-34.95-13.07-52.08c-12.68,14.91-25.41,29.85-36.4,46.08c-19.46,28.23-34.15,59.52-45.11,91.94
			c-1.21-4.01-2.51-7.98-3.95-11.91c-0.38-1.35-1.35-2.88-0.25-4.16c6.98-11.9,12.99-24.37,17.83-37.28
			c16.07-42.52,19.09-89.75,8.97-134.03c-4.02-18.95-11.53-36.85-18-55.03c-13.87,17.51-27.61,35.38-37.28,55.64
			c-13.42,27.25-20.49,57.4-22.2,87.66c-0.84-0.99-2.16-1.84-1.97-3.32c-0.05-51.33-0.02-102.65-0.02-153.98
			C431.26,86.73,415,70.65,398.91,54.41C382.85,70.55,366.6,86.52,350.66,102.77z"/>
	</g>
	<path fill="#FE0000" d="M447.34,442.49c-0.08-11.76-0.06-23.51-0.01-35.27c9.01,3.35,18.55,5.15,27.73,7.68
		c0.7,20.25-0.72,40.6-4.31,60.56C463.7,463.96,456.19,452.7,447.34,442.49z"/>
	<path fill="#FE0000" d="M447.51,539.3c-0.5-2.93-0.17-5.92-0.06-8.87c1.87,0.81,3.75,1.61,5.62,2.46
		c-1.19,2.42-2.34,4.86-3.41,7.34C449.12,539.99,448.05,539.53,447.51,539.3z"/>
</g>
<g>
	<path fill="#FFD33F" d="M361.76,107.78c10.34-10.56,20.83-20.97,31.34-31.37c-0.12,67.07,0.2,134.14-0.16,201.21
		c-10.05-4.92-20.62-8.62-31.21-12.17C361.88,212.89,361.83,160.33,361.76,107.78z"/>
	<path fill="#FFD33F" d="M404.76,76.34c10.43,10.53,21.03,20.88,31.37,31.49c-0.09,65.52,0.01,131.04-0.04,196.55
		c-9.99-7.55-20.32-14.68-31.32-20.69C404.73,214.57,404.76,145.45,404.76,76.34z"/>
	<path fill="#FFD33F" d="M361.8,351.01c9.14,9.63,18.96,18.63,29.67,26.5c2.25,1.04,1.58,3.58,1.57,5.55
		c-0.29,3.92,0.04,7.83,0.06,11.76c-1.1,0.25-1.98-0.6-2.89-1.02c-9.04-5.46-18.57-10.1-28.35-14.06
		C361.75,370.16,361.84,360.58,361.8,351.01z"/>
	<path fill="#FFD33F" d="M404.74,386.69c9.92,6.32,20.37,11.83,31.26,16.28c0.14,8.97,0.21,17.94-0.04,26.91
		c-9.68-9.72-20.1-18.7-31.22-26.73C404.76,397.66,404.75,392.17,404.74,386.69z"/>
	<path fill="#FFD33F" d="M361.93,469.93c9.39,10.66,19.91,20.25,30.84,29.28c0.75,11.62,0.1,23.41,0.32,35.1
		c-10.42,0.04-20.85,0.01-31.28,0.01C361.89,512.86,361.65,491.39,361.93,469.93z"/>
	<path fill="#FFD33F" d="M404.77,507.91c8.92,6.09,18.25,11.6,28.03,16.21c1,0.64,2.46,0.83,3.12,1.9c0.37,2.74,0.14,5.52,0.17,8.29
		c-10.45,0.04-20.89,0.01-31.34,0.02C404.77,525.52,404.72,516.72,404.77,507.91z"/>
	<path fill="#FFD33F" d="M358.56,547.43c1.37-0.73,2.69-1.91,4.35-1.77c24.04,0,48.08-0.02,72.11,0.01
		c3.51,0.52,6.27,3.25,9.26,5.03c-3.72,6.35-7.31,12.8-11.5,18.86c-36.72-0.13-73.45,0.02-110.17-0.08
		C334.42,561.86,346.64,554.87,358.56,547.43z"/>
	<path fill="#FFD33F" d="M329.39,585.57c-2.22-1.55-4.72-2.76-6.55-4.8c34.08-0.02,68.16-0.01,102.23,0
		c-6.36,8.68-13.2,17.01-20.43,24.98c-14.21,0.08-28.43-0.01-42.65,0.06c-1.34,0.07-2.69-0.13-3.75-0.99
		C348.64,598.38,339,591.99,329.39,585.57z"/>
	<path fill="#FFD33F" d="M361.81,617.13c10.49,0.02,20.98-0.02,31.47,0.01c-9.53,9.46-20.25,17.68-31.47,25.02
		C361.81,633.82,361.8,625.47,361.81,617.13z"/>
	<path fill="#FFD33F" d="M404.75,662.9c11.06-8.21,21.44-17.31,31.29-26.93c0.14,21.83,0.02,43.66,0.06,65.49
		c-10.45,0.06-20.9,0.01-31.35,0.03C404.75,688.62,404.76,675.76,404.75,662.9z"/>
	<path fill="#FFD33F" d="M361.81,688.93c10.77-5.26,21.15-11.29,31.22-17.79c0.14,10.1,0.02,20.21,0.06,30.32
		c-10.43,0.07-20.86,0.01-31.28,0.03C361.81,697.3,361.81,693.11,361.81,688.93z"/>
	<path fill="#FFD33F" d="M351.07,712.49c31.92,0.01,63.84-0.06,95.76,0.04c-0.08,5.95-0.04,11.9-0.02,17.85
		c-31.91,0-63.82,0.01-95.73,0C351.1,724.41,351.11,718.45,351.07,712.49z"/>
</g>
<g>
	<path fill="#00FF01" d="M271.64,115.66c28.06,5.6,55,16.66,78.76,32.62c0.19,27.22,0.07,54.44,0.06,81.66
		c-27.91-21.21-50.54-49.18-65.63-80.81C279.62,138.32,275.26,127.1,271.64,115.66z"/>
	<path fill="#00FF01" d="M460.82,274.08c-1.57-48,15.37-95.71,44.32-133.75c16.27,41.1,20.87,87.04,11.33,130.32
		c-4.27,19.85-11.49,38.99-20.82,57c-0.6,0.87-0.81,2.34-2.12,2.32c-7.02-16.59-15.84-32.42-26.36-47.06
		C465.15,279.9,462.65,277.21,460.82,274.08z"/>
	<path fill="#00FF01" d="M510.29,380.31c12.7-49.86,37.77-96.2,70.74-135.56c10.75,36.02,10.35,75.44-2.18,110.97
		c-11.59,33.53-33.74,63.18-62.23,84.27c-0.1-18.84-2.05-37.69-6.05-56.1C510.36,382.71,510.04,381.5,510.29,380.31z"/>
	<path fill="#00FF01" d="M326.97,269.26c45.67,7.61,89.4,28.69,122.13,61.68c4.51,4.77,9.48,9.27,13.12,14.75
		c6.62,18.33,10.61,37.57,12.21,56.98c-35.19-7.65-68.47-24.65-94.57-49.57C355.54,330.19,337.53,300.9,326.97,269.26z"/>
	<path fill="#00FF01" d="M446.84,275.25c24.55,29.31,41.22,64.73,50.57,101.69c11.22,44.51,10.47,91.94-2.15,136.07
		c-17.4,62.03-58.27,117.15-112.82,151.48c-17.4,10.95-36.01,20.08-55.52,26.6c0.09-6.21-0.27-12.42,0.24-18.61
		c30.33-11.84,57.73-30.69,80.59-53.79c56.34-57.17,85.26-139.94,77.54-219.75c-2.28-22.94-7.59-45.59-16.08-67.02
		c-5.13-13.3-13-25.28-21.15-36.89c-1.74-1.95-1.23-4.64-1.29-7.02C446.83,283.75,446.74,279.5,446.84,275.25z"/>
	<path fill="#00FF01" d="M324.97,379.82c36.68,9.14,71.34,27.28,98.56,53.66c17.74,17.11,32.45,37.41,43.08,59.64
		c-1.88,9.89-5.6,19.39-8.98,28.87c-33.56-12.27-64.1-32.98-87.58-59.96C349.33,438.3,334.09,409.93,324.97,379.82z"/>
	<path fill="#00FF01" d="M517.15,484.11c27.69-34.96,59.83-66.22,94.58-94.11c-3.87,36.14-18.12,70.93-39.5,100.22
		c-10.13,13.67-22.04,26.18-36,35.97c-11.61,8.15-24.88,14.2-39,16.2c6.23-15.97,11.2-32.46,14.34-49.32
		C512.05,489.4,515.12,486.96,517.15,484.11z"/>
</g>
</svg>
